<svg xmlns="http://www.w3.org/2000/svg" xmlns:xlink="http://www.w3.org/1999/xlink" width="500" zoomAndPan="magnify" viewBox="0 0 375 374.999991" height="500" preserveAspectRatio="xMidYMid meet" version="1.0"><defs><clipPath id="3677a0d06a"><path d="M 12 12 L 363 12 L 363 363 L 12 363 Z M 12 12 " clip-rule="nonzero"/></clipPath><clipPath id="a803903c13"><path d="M 223.167969 432.210938 L -57.027344 223.308594 L 151.875 -56.886719 L 432.070312 152.011719 Z M 223.167969 432.210938 " clip-rule="nonzero"/></clipPath><clipPath id="90376981bf"><path d="M 223.167969 432.210938 L -57.027344 223.308594 L 151.875 -56.886719 L 432.070312 152.011719 Z M 223.167969 432.210938 " clip-rule="nonzero"/></clipPath><clipPath id="98f286fb44"><path d="M 47.304688 82.976562 C 49.015625 80.683594 50.78125 78.429688 52.601562 76.222656 C 54.421875 74.015625 56.296875 71.855469 58.226562 69.738281 C 60.152344 67.625 62.128906 65.554688 64.160156 63.539062 C 66.1875 61.519531 68.265625 59.550781 70.390625 57.636719 C 72.515625 55.71875 74.6875 53.855469 76.902344 52.046875 C 79.121094 50.234375 81.378906 48.480469 83.683594 46.78125 C 85.984375 45.082031 88.328125 43.441406 90.710938 41.855469 C 93.09375 40.273438 95.515625 38.75 97.976562 37.285156 C 100.433594 35.820312 102.925781 34.414062 105.453125 33.070312 C 107.980469 31.730469 110.539062 30.449219 113.128906 29.230469 C 115.71875 28.015625 118.339844 26.863281 120.984375 25.773438 C 123.632812 24.683594 126.304688 23.664062 129 22.703125 C 131.699219 21.746094 134.417969 20.855469 137.15625 20.035156 C 139.898438 19.210938 142.65625 18.453125 145.433594 17.765625 C 148.210938 17.078125 151.003906 16.457031 153.8125 15.90625 C 156.621094 15.355469 159.441406 14.871094 162.273438 14.460938 C 165.105469 14.046875 167.945312 13.703125 170.792969 13.429688 C 173.644531 13.15625 176.496094 12.953125 179.355469 12.820312 C 182.214844 12.6875 185.074219 12.625 187.9375 12.632812 C 190.796875 12.636719 193.660156 12.714844 196.515625 12.863281 C 199.375 13.011719 202.226562 13.226562 205.074219 13.515625 C 207.921875 13.804688 210.761719 14.160156 213.589844 14.589844 C 216.421875 15.015625 219.238281 15.511719 222.042969 16.078125 C 224.847656 16.640625 227.636719 17.277344 230.414062 17.976562 C 233.1875 18.679688 235.941406 19.449219 238.679688 20.289062 C 241.414062 21.125 244.128906 22.03125 246.820312 23 C 249.515625 23.972656 252.179688 25.007812 254.820312 26.109375 C 257.464844 27.210938 260.074219 28.378906 262.660156 29.609375 C 265.242188 30.839844 267.796875 32.128906 270.316406 33.484375 C 272.835938 34.839844 275.324219 36.257812 277.773438 37.734375 C 280.226562 39.210938 282.636719 40.75 285.011719 42.34375 C 287.390625 43.941406 289.722656 45.59375 292.019531 47.304688 C 294.3125 49.015625 296.5625 50.78125 298.769531 52.601562 C 300.980469 54.421875 303.140625 56.296875 305.257812 58.226562 C 307.371094 60.152344 309.4375 62.128906 311.457031 64.160156 C 313.476562 66.1875 315.445312 68.265625 317.359375 70.390625 C 319.277344 72.515625 321.140625 74.6875 322.949219 76.902344 C 324.761719 79.121094 326.515625 81.378906 328.214844 83.683594 C 329.914062 85.984375 331.554688 88.328125 333.136719 90.710938 C 334.722656 93.09375 336.246094 95.515625 337.710938 97.976562 C 339.175781 100.433594 340.582031 102.925781 341.921875 105.453125 C 343.265625 107.980469 344.546875 110.539062 345.761719 113.128906 C 346.980469 115.71875 348.132812 118.339844 349.222656 120.984375 C 350.308594 123.632812 351.332031 126.304688 352.289062 129 C 353.246094 131.699219 354.136719 134.417969 354.960938 137.15625 C 355.785156 139.898438 356.542969 142.65625 357.230469 145.433594 C 357.917969 148.210938 358.539062 151.003906 359.089844 153.8125 C 359.640625 156.621094 360.125 159.441406 360.535156 162.273438 C 360.949219 165.105469 361.292969 167.945312 361.566406 170.792969 C 361.839844 173.644531 362.042969 176.496094 362.175781 179.355469 C 362.308594 182.214844 362.371094 185.074219 362.363281 187.9375 C 362.355469 190.796875 362.28125 193.660156 362.132812 196.515625 C 361.984375 199.375 361.765625 202.226562 361.480469 205.074219 C 361.191406 207.921875 360.835938 210.761719 360.40625 213.589844 C 359.980469 216.421875 359.484375 219.238281 358.917969 222.042969 C 358.351562 224.847656 357.71875 227.636719 357.015625 230.414062 C 356.316406 233.1875 355.542969 235.941406 354.707031 238.679688 C 353.871094 241.414062 352.964844 244.128906 351.996094 246.820312 C 351.023438 249.515625 349.988281 252.179688 348.886719 254.820312 C 347.785156 257.464844 346.617188 260.074219 345.386719 262.660156 C 344.15625 265.242188 342.863281 267.796875 341.507812 270.316406 C 340.152344 272.835938 338.738281 275.324219 337.261719 277.773438 C 335.78125 280.226562 334.246094 282.636719 332.648438 285.011719 C 331.054688 287.390625 329.402344 289.722656 327.691406 292.019531 C 325.980469 294.3125 324.214844 296.5625 322.394531 298.769531 C 320.570312 300.980469 318.699219 303.140625 316.769531 305.257812 C 314.84375 307.371094 312.863281 309.4375 310.835938 311.457031 C 308.808594 313.476562 306.730469 315.445312 304.605469 317.359375 C 302.480469 319.277344 300.308594 321.140625 298.09375 322.949219 C 295.875 324.761719 293.617188 326.515625 291.3125 328.214844 C 289.011719 329.914062 286.667969 331.554688 284.28125 333.136719 C 281.898438 334.722656 279.480469 336.246094 277.019531 337.710938 C 274.5625 339.175781 272.070312 340.582031 269.542969 341.921875 C 267.015625 343.265625 264.457031 344.546875 261.867188 345.761719 C 259.277344 346.980469 256.65625 348.132812 254.011719 349.222656 C 251.363281 350.308594 248.691406 351.332031 245.996094 352.289062 C 243.296875 353.246094 240.578125 354.136719 237.839844 354.960938 C 235.097656 355.785156 232.339844 356.542969 229.5625 357.230469 C 226.78125 357.917969 223.988281 358.539062 221.183594 359.089844 C 218.375 359.640625 215.554688 360.125 212.722656 360.535156 C 209.890625 360.949219 207.050781 361.292969 204.199219 361.566406 C 201.351562 361.839844 198.496094 362.042969 195.640625 362.175781 C 192.78125 362.308594 189.921875 362.371094 187.058594 362.363281 C 184.195312 362.355469 181.335938 362.28125 178.480469 362.132812 C 175.621094 361.984375 172.769531 361.765625 169.921875 361.480469 C 167.074219 361.191406 164.234375 360.835938 161.40625 360.40625 C 158.574219 359.980469 155.757812 359.484375 152.953125 358.917969 C 150.148438 358.351562 147.355469 357.71875 144.582031 357.015625 C 141.808594 356.316406 139.054688 355.542969 136.316406 354.707031 C 133.578125 353.871094 130.867188 352.964844 128.171875 351.996094 C 125.480469 351.023438 122.816406 349.988281 120.171875 348.886719 C 117.53125 347.785156 114.917969 346.617188 112.335938 345.386719 C 109.75 344.15625 107.199219 342.863281 104.679688 341.507812 C 102.160156 340.152344 99.671875 338.738281 97.222656 337.261719 C 94.769531 335.78125 92.355469 334.246094 89.980469 332.648438 C 87.605469 331.054688 85.269531 329.402344 82.976562 327.691406 C 80.683594 325.980469 78.429688 324.214844 76.222656 322.394531 C 74.015625 320.570312 71.855469 318.699219 69.738281 316.769531 C 67.625 314.84375 65.554688 312.863281 63.539062 310.835938 C 61.519531 308.808594 59.550781 306.730469 57.636719 304.605469 C 55.71875 302.480469 53.855469 300.308594 52.046875 298.09375 C 50.234375 295.875 48.480469 293.617188 46.78125 291.3125 C 45.082031 289.011719 43.441406 286.667969 41.855469 284.28125 C 40.273438 281.898438 38.75 279.480469 37.285156 277.019531 C 35.820312 274.5625 34.414062 272.070312 33.070312 269.542969 C 31.730469 267.015625 30.449219 264.457031 29.230469 261.867188 C 28.015625 259.277344 26.863281 256.65625 25.773438 254.011719 C 24.683594 251.363281 23.664062 248.691406 22.703125 245.996094 C 21.746094 243.296875 20.855469 240.578125 20.03125 237.839844 C 19.210938 235.097656 18.453125 232.339844 17.765625 229.5625 C 17.078125 226.78125 16.457031 223.988281 15.90625 221.183594 C 15.355469 218.375 14.871094 215.554688 14.460938 212.722656 C 14.046875 209.890625 13.703125 207.050781 13.429688 204.199219 C 13.15625 201.351562 12.953125 198.496094 12.820312 195.640625 C 12.6875 192.78125 12.625 189.921875 12.632812 187.058594 C 12.636719 184.195312 12.714844 181.335938 12.863281 178.480469 C 13.011719 175.621094 13.226562 172.769531 13.515625 169.921875 C 13.804688 167.074219 14.160156 164.234375 14.589844 161.40625 C 15.015625 158.574219 15.511719 155.757812 16.078125 152.953125 C 16.640625 150.148438 17.277344 147.355469 17.976562 144.582031 C 18.679688 141.808594 19.449219 139.054688 20.289062 136.316406 C 21.125 133.578125 22.03125 130.867188 23 128.171875 C 23.972656 125.480469 25.007812 122.816406 26.109375 120.171875 C 27.210938 117.53125 28.378906 114.917969 29.609375 112.335938 C 30.839844 109.75 32.128906 107.199219 33.484375 104.679688 C 34.839844 102.160156 36.257812 99.671875 37.734375 97.222656 C 39.210938 94.769531 40.75 92.355469 42.34375 89.980469 C 43.941406 87.605469 45.59375 85.269531 47.304688 82.976562 Z M 47.304688 82.976562 " clip-rule="nonzero"/></clipPath><linearGradient x1="1745.299606" gradientTransform="matrix(1.629317, -2.185387, 2.185387, 1.629317, -3337.479915, 3798.936889)" y1="244.834" x2="1924.852447" gradientUnits="userSpaceOnUse" y2="244.834" id="a559522867"><stop stop-opacity="1" stop-color="rgb(76.899719%, 0%, 100%)" offset="0"/><stop stop-opacity="1" stop-color="rgb(76.899719%, 0%, 100%)" offset="0.125"/><stop stop-opacity="1" stop-color="rgb(76.899719%, 0%, 100%)" offset="0.140625"/><stop stop-opacity="1" stop-color="rgb(76.647949%, 0.511169%, 100%)" offset="0.144531"/><stop stop-opacity="1" stop-color="rgb(76.396179%, 1.022339%, 100%)" offset="0.148438"/><stop stop-opacity="1" stop-color="rgb(76.051331%, 1.721191%, 100%)" offset="0.152344"/><stop stop-opacity="1" stop-color="rgb(75.706482%, 2.420044%, 100%)" offset="0.15625"/><stop stop-opacity="1" stop-color="rgb(75.361633%, 3.118896%, 100%)" offset="0.160156"/><stop stop-opacity="1" stop-color="rgb(75.018311%, 3.817749%, 100%)" offset="0.164063"/><stop stop-opacity="1" stop-color="rgb(74.673462%, 4.516602%, 100%)" offset="0.167969"/><stop stop-opacity="1" stop-color="rgb(74.328613%, 5.215454%, 100%)" offset="0.171875"/><stop stop-opacity="1" stop-color="rgb(73.983765%, 5.914307%, 100%)" offset="0.175781"/><stop stop-opacity="1" stop-color="rgb(73.640442%, 6.614685%, 100%)" offset="0.179688"/><stop stop-opacity="1" stop-color="rgb(73.295593%, 7.313538%, 100%)" offset="0.183594"/><stop stop-opacity="1" stop-color="rgb(72.952271%, 8.01239%, 100%)" offset="0.1875"/><stop stop-opacity="1" stop-color="rgb(72.607422%, 8.711243%, 100%)" offset="0.191406"/><stop stop-opacity="1" stop-color="rgb(72.262573%, 9.410095%, 100%)" offset="0.195313"/><stop stop-opacity="1" stop-color="rgb(71.917725%, 10.108948%, 100%)" offset="0.199219"/><stop stop-opacity="1" stop-color="rgb(71.574402%, 10.8078%, 100%)" offset="0.203125"/><stop stop-opacity="1" stop-color="rgb(71.229553%, 11.506653%, 100%)" offset="0.207031"/><stop stop-opacity="1" stop-color="rgb(70.88623%, 12.207031%, 100%)" offset="0.210938"/><stop stop-opacity="1" stop-color="rgb(70.541382%, 12.905884%, 100%)" offset="0.214844"/><stop stop-opacity="1" stop-color="rgb(70.196533%, 13.604736%, 100%)" offset="0.21875"/><stop stop-opacity="1" stop-color="rgb(69.851685%, 14.303589%, 100%)" offset="0.222656"/><stop stop-opacity="1" stop-color="rgb(69.508362%, 15.002441%, 100%)" offset="0.226563"/><stop stop-opacity="1" stop-color="rgb(69.163513%, 15.701294%, 100%)" offset="0.230469"/><stop stop-opacity="1" stop-color="rgb(68.82019%, 16.400146%, 100%)" offset="0.234375"/><stop stop-opacity="1" stop-color="rgb(68.475342%, 17.098999%, 100%)" offset="0.238281"/><stop stop-opacity="1" stop-color="rgb(68.130493%, 17.799377%, 100%)" offset="0.242188"/><stop stop-opacity="1" stop-color="rgb(67.785645%, 18.49823%, 100%)" offset="0.246094"/><stop stop-opacity="1" stop-color="rgb(67.442322%, 19.197083%, 100%)" offset="0.25"/><stop stop-opacity="1" stop-color="rgb(67.097473%, 19.895935%, 100%)" offset="0.253906"/><stop stop-opacity="1" stop-color="rgb(66.75415%, 20.594788%, 100%)" offset="0.257813"/><stop stop-opacity="1" stop-color="rgb(66.409302%, 21.29364%, 100%)" offset="0.261719"/><stop stop-opacity="1" stop-color="rgb(66.064453%, 21.994019%, 100%)" offset="0.265625"/><stop stop-opacity="1" stop-color="rgb(65.719604%, 22.692871%, 100%)" offset="0.269531"/><stop stop-opacity="1" stop-color="rgb(65.376282%, 23.391724%, 100%)" offset="0.273438"/><stop stop-opacity="1" stop-color="rgb(65.031433%, 24.090576%, 100%)" offset="0.277344"/><stop stop-opacity="1" stop-color="rgb(64.686584%, 24.789429%, 100%)" offset="0.28125"/><stop stop-opacity="1" stop-color="rgb(64.341736%, 25.488281%, 100%)" offset="0.285156"/><stop stop-opacity="1" stop-color="rgb(63.998413%, 26.187134%, 100%)" offset="0.289063"/><stop stop-opacity="1" stop-color="rgb(63.653564%, 26.885986%, 100%)" offset="0.292969"/><stop stop-opacity="1" stop-color="rgb(63.310242%, 27.586365%, 100%)" offset="0.296875"/><stop stop-opacity="1" stop-color="rgb(62.965393%, 28.285217%, 100%)" offset="0.300781"/><stop stop-opacity="1" stop-color="rgb(62.620544%, 28.98407%, 100%)" offset="0.304688"/><stop stop-opacity="1" stop-color="rgb(62.275696%, 29.682922%, 100%)" offset="0.308594"/><stop stop-opacity="1" stop-color="rgb(61.932373%, 30.381775%, 100%)" offset="0.3125"/><stop stop-opacity="1" stop-color="rgb(61.587524%, 31.080627%, 100%)" offset="0.316406"/><stop stop-opacity="1" stop-color="rgb(61.244202%, 31.77948%, 100%)" offset="0.320312"/><stop stop-opacity="1" stop-color="rgb(60.899353%, 32.478333%, 100%)" offset="0.324219"/><stop stop-opacity="1" stop-color="rgb(60.554504%, 33.178711%, 100%)" offset="0.328125"/><stop stop-opacity="1" stop-color="rgb(60.209656%, 33.877563%, 100%)" offset="0.332031"/><stop stop-opacity="1" stop-color="rgb(59.866333%, 34.576416%, 100%)" offset="0.335938"/><stop stop-opacity="1" stop-color="rgb(59.521484%, 35.275269%, 100%)" offset="0.339844"/><stop stop-opacity="1" stop-color="rgb(59.178162%, 35.974121%, 100%)" offset="0.34375"/><stop stop-opacity="1" stop-color="rgb(58.833313%, 36.672974%, 100%)" offset="0.347656"/><stop stop-opacity="1" stop-color="rgb(58.488464%, 37.371826%, 100%)" offset="0.351563"/><stop stop-opacity="1" stop-color="rgb(58.143616%, 38.070679%, 100%)" offset="0.355469"/><stop stop-opacity="1" stop-color="rgb(57.800293%, 38.771057%, 100%)" offset="0.359375"/><stop stop-opacity="1" stop-color="rgb(57.455444%, 39.46991%, 100%)" offset="0.363281"/><stop stop-opacity="1" stop-color="rgb(57.112122%, 40.168762%, 100%)" offset="0.367188"/><stop stop-opacity="1" stop-color="rgb(56.767273%, 40.867615%, 100%)" offset="0.371094"/><stop stop-opacity="1" stop-color="rgb(56.422424%, 41.566467%, 100%)" offset="0.375"/><stop stop-opacity="1" stop-color="rgb(56.077576%, 42.26532%, 100%)" offset="0.378906"/><stop stop-opacity="1" stop-color="rgb(55.734253%, 42.964172%, 100%)" offset="0.382813"/><stop stop-opacity="1" stop-color="rgb(55.389404%, 43.663025%, 100%)" offset="0.386719"/><stop stop-opacity="1" stop-color="rgb(55.044556%, 44.363403%, 100%)" offset="0.390625"/><stop stop-opacity="1" stop-color="rgb(54.699707%, 45.062256%, 100%)" offset="0.394531"/><stop stop-opacity="1" stop-color="rgb(54.356384%, 45.761108%, 100%)" offset="0.398438"/><stop stop-opacity="1" stop-color="rgb(54.011536%, 46.459961%, 100%)" offset="0.402344"/><stop stop-opacity="1" stop-color="rgb(53.668213%, 47.158813%, 100%)" offset="0.40625"/><stop stop-opacity="1" stop-color="rgb(53.323364%, 47.857666%, 100%)" offset="0.410156"/><stop stop-opacity="1" stop-color="rgb(52.978516%, 48.556519%, 100%)" offset="0.414063"/><stop stop-opacity="1" stop-color="rgb(52.633667%, 49.255371%, 100%)" offset="0.417969"/><stop stop-opacity="1" stop-color="rgb(52.290344%, 49.95575%, 100%)" offset="0.421875"/><stop stop-opacity="1" stop-color="rgb(51.945496%, 50.654602%, 100%)" offset="0.425781"/><stop stop-opacity="1" stop-color="rgb(51.602173%, 51.353455%, 100%)" offset="0.429688"/><stop stop-opacity="1" stop-color="rgb(51.257324%, 52.052307%, 100%)" offset="0.433594"/><stop stop-opacity="1" stop-color="rgb(50.912476%, 52.75116%, 100%)" offset="0.4375"/><stop stop-opacity="1" stop-color="rgb(50.567627%, 53.450012%, 100%)" offset="0.441406"/><stop stop-opacity="1" stop-color="rgb(50.224304%, 54.148865%, 100%)" offset="0.445313"/><stop stop-opacity="1" stop-color="rgb(49.879456%, 54.847717%, 100%)" offset="0.449219"/><stop stop-opacity="1" stop-color="rgb(49.536133%, 55.548096%, 100%)" offset="0.453125"/><stop stop-opacity="1" stop-color="rgb(49.191284%, 56.246948%, 100%)" offset="0.457031"/><stop stop-opacity="1" stop-color="rgb(48.846436%, 56.945801%, 100%)" offset="0.460938"/><stop stop-opacity="1" stop-color="rgb(48.501587%, 57.644653%, 100%)" offset="0.464844"/><stop stop-opacity="1" stop-color="rgb(48.158264%, 58.343506%, 100%)" offset="0.46875"/><stop stop-opacity="1" stop-color="rgb(47.813416%, 59.042358%, 100%)" offset="0.472656"/><stop stop-opacity="1" stop-color="rgb(47.468567%, 59.742737%, 100%)" offset="0.476563"/><stop stop-opacity="1" stop-color="rgb(47.123718%, 60.441589%, 100%)" offset="0.480469"/><stop stop-opacity="1" stop-color="rgb(46.780396%, 61.140442%, 100%)" offset="0.484375"/><stop stop-opacity="1" stop-color="rgb(46.435547%, 61.839294%, 100%)" offset="0.488281"/><stop stop-opacity="1" stop-color="rgb(46.092224%, 62.538147%, 100%)" offset="0.492188"/><stop stop-opacity="1" stop-color="rgb(45.747375%, 63.237%, 100%)" offset="0.496094"/><stop stop-opacity="1" stop-color="rgb(45.402527%, 63.935852%, 100%)" offset="0.5"/><stop stop-opacity="1" stop-color="rgb(45.057678%, 64.634705%, 100%)" offset="0.503906"/><stop stop-opacity="1" stop-color="rgb(44.714355%, 65.335083%, 100%)" offset="0.507812"/><stop stop-opacity="1" stop-color="rgb(44.369507%, 66.033936%, 100%)" offset="0.511719"/><stop stop-opacity="1" stop-color="rgb(44.026184%, 66.732788%, 100%)" offset="0.515625"/><stop stop-opacity="1" stop-color="rgb(43.681335%, 67.431641%, 100%)" offset="0.519531"/><stop stop-opacity="1" stop-color="rgb(43.336487%, 68.130493%, 100%)" offset="0.523438"/><stop stop-opacity="1" stop-color="rgb(42.991638%, 68.829346%, 100%)" offset="0.527344"/><stop stop-opacity="1" stop-color="rgb(42.648315%, 69.528198%, 100%)" offset="0.53125"/><stop stop-opacity="1" stop-color="rgb(42.303467%, 70.227051%, 100%)" offset="0.535156"/><stop stop-opacity="1" stop-color="rgb(41.960144%, 70.927429%, 100%)" offset="0.539062"/><stop stop-opacity="1" stop-color="rgb(41.615295%, 71.626282%, 100%)" offset="0.542969"/><stop stop-opacity="1" stop-color="rgb(41.270447%, 72.325134%, 100%)" offset="0.546875"/><stop stop-opacity="1" stop-color="rgb(40.925598%, 73.023987%, 100%)" offset="0.550781"/><stop stop-opacity="1" stop-color="rgb(40.582275%, 73.722839%, 100%)" offset="0.554688"/><stop stop-opacity="1" stop-color="rgb(40.237427%, 74.421692%, 100%)" offset="0.558594"/><stop stop-opacity="1" stop-color="rgb(39.894104%, 75.120544%, 100%)" offset="0.5625"/><stop stop-opacity="1" stop-color="rgb(39.549255%, 75.819397%, 100%)" offset="0.566406"/><stop stop-opacity="1" stop-color="rgb(39.204407%, 76.519775%, 100%)" offset="0.570313"/><stop stop-opacity="1" stop-color="rgb(38.859558%, 77.218628%, 100%)" offset="0.574219"/><stop stop-opacity="1" stop-color="rgb(38.516235%, 77.91748%, 100%)" offset="0.578125"/><stop stop-opacity="1" stop-color="rgb(38.171387%, 78.616333%, 100%)" offset="0.582031"/><stop stop-opacity="1" stop-color="rgb(37.826538%, 79.315186%, 100%)" offset="0.585938"/><stop stop-opacity="1" stop-color="rgb(37.481689%, 80.014038%, 100%)" offset="0.589844"/><stop stop-opacity="1" stop-color="rgb(37.138367%, 80.712891%, 100%)" offset="0.59375"/><stop stop-opacity="1" stop-color="rgb(36.688232%, 81.117249%, 100%)" offset="0.597656"/><stop stop-opacity="1" stop-color="rgb(36.239624%, 81.521606%, 100%)" offset="0.601563"/><stop stop-opacity="1" stop-color="rgb(35.734558%, 81.767273%, 100%)" offset="0.605469"/><stop stop-opacity="1" stop-color="rgb(35.229492%, 82.014465%, 100%)" offset="0.609375"/><stop stop-opacity="1" stop-color="rgb(34.7229%, 82.260132%, 100%)" offset="0.613281"/><stop stop-opacity="1" stop-color="rgb(34.217834%, 82.507324%, 100%)" offset="0.617188"/><stop stop-opacity="1" stop-color="rgb(33.712769%, 82.752991%, 100%)" offset="0.621094"/><stop stop-opacity="1" stop-color="rgb(33.207703%, 83.000183%, 100%)" offset="0.625"/><stop stop-opacity="1" stop-color="rgb(32.702637%, 83.24585%, 100%)" offset="0.628906"/><stop stop-opacity="1" stop-color="rgb(32.197571%, 83.493042%, 100%)" offset="0.632812"/><stop stop-opacity="1" stop-color="rgb(31.690979%, 83.738708%, 100%)" offset="0.636719"/><stop stop-opacity="1" stop-color="rgb(31.185913%, 83.985901%, 100%)" offset="0.640625"/><stop stop-opacity="1" stop-color="rgb(30.680847%, 84.231567%, 100%)" offset="0.644531"/><stop stop-opacity="1" stop-color="rgb(30.175781%, 84.47876%, 100%)" offset="0.648438"/><stop stop-opacity="1" stop-color="rgb(29.670715%, 84.725952%, 100%)" offset="0.652344"/><stop stop-opacity="1" stop-color="rgb(29.165649%, 84.973145%, 100%)" offset="0.65625"/><stop stop-opacity="1" stop-color="rgb(28.659058%, 85.218811%, 100%)" offset="0.660156"/><stop stop-opacity="1" stop-color="rgb(28.153992%, 85.466003%, 100%)" offset="0.664063"/><stop stop-opacity="1" stop-color="rgb(27.648926%, 85.71167%, 100%)" offset="0.667969"/><stop stop-opacity="1" stop-color="rgb(27.14386%, 85.958862%, 100%)" offset="0.671875"/><stop stop-opacity="1" stop-color="rgb(26.638794%, 86.204529%, 100%)" offset="0.675781"/><stop stop-opacity="1" stop-color="rgb(26.133728%, 86.451721%, 100%)" offset="0.679688"/><stop stop-opacity="1" stop-color="rgb(25.627136%, 86.697388%, 100%)" offset="0.683594"/><stop stop-opacity="1" stop-color="rgb(25.12207%, 86.94458%, 100%)" offset="0.6875"/><stop stop-opacity="1" stop-color="rgb(24.617004%, 87.190247%, 100%)" offset="0.691406"/><stop stop-opacity="1" stop-color="rgb(24.111938%, 87.437439%, 100%)" offset="0.695313"/><stop stop-opacity="1" stop-color="rgb(23.606873%, 87.683105%, 100%)" offset="0.699219"/><stop stop-opacity="1" stop-color="rgb(23.101807%, 87.930298%, 100%)" offset="0.703125"/><stop stop-opacity="1" stop-color="rgb(22.595215%, 88.17749%, 100%)" offset="0.707031"/><stop stop-opacity="1" stop-color="rgb(22.090149%, 88.424683%, 100%)" offset="0.710938"/><stop stop-opacity="1" stop-color="rgb(21.585083%, 88.670349%, 100%)" offset="0.714844"/><stop stop-opacity="1" stop-color="rgb(21.080017%, 88.917542%, 100%)" offset="0.71875"/><stop stop-opacity="1" stop-color="rgb(20.574951%, 89.163208%, 100%)" offset="0.722656"/><stop stop-opacity="1" stop-color="rgb(20.069885%, 89.4104%, 100%)" offset="0.726562"/><stop stop-opacity="1" stop-color="rgb(19.563293%, 89.656067%, 100%)" offset="0.730469"/><stop stop-opacity="1" stop-color="rgb(19.058228%, 89.903259%, 100%)" offset="0.734375"/><stop stop-opacity="1" stop-color="rgb(18.553162%, 90.148926%, 100%)" offset="0.738281"/><stop stop-opacity="1" stop-color="rgb(18.048096%, 90.396118%, 100%)" offset="0.742188"/><stop stop-opacity="1" stop-color="rgb(17.54303%, 90.641785%, 100%)" offset="0.746094"/><stop stop-opacity="1" stop-color="rgb(17.037964%, 90.888977%, 100%)" offset="0.75"/><stop stop-opacity="1" stop-color="rgb(16.531372%, 91.134644%, 100%)" offset="0.753906"/><stop stop-opacity="1" stop-color="rgb(16.026306%, 91.381836%, 100%)" offset="0.757812"/><stop stop-opacity="1" stop-color="rgb(15.52124%, 91.629028%, 100%)" offset="0.761719"/><stop stop-opacity="1" stop-color="rgb(15.016174%, 91.876221%, 100%)" offset="0.765625"/><stop stop-opacity="1" stop-color="rgb(14.511108%, 92.121887%, 100%)" offset="0.769531"/><stop stop-opacity="1" stop-color="rgb(14.006042%, 92.36908%, 100%)" offset="0.773438"/><stop stop-opacity="1" stop-color="rgb(13.499451%, 92.614746%, 100%)" offset="0.777344"/><stop stop-opacity="1" stop-color="rgb(12.994385%, 92.861938%, 100%)" offset="0.78125"/><stop stop-opacity="1" stop-color="rgb(12.489319%, 93.107605%, 100%)" offset="0.785156"/><stop stop-opacity="1" stop-color="rgb(11.984253%, 93.354797%, 100%)" offset="0.789062"/><stop stop-opacity="1" stop-color="rgb(11.479187%, 93.600464%, 100%)" offset="0.792969"/><stop stop-opacity="1" stop-color="rgb(10.974121%, 93.847656%, 100%)" offset="0.796875"/><stop stop-opacity="1" stop-color="rgb(10.467529%, 94.093323%, 100%)" offset="0.800781"/><stop stop-opacity="1" stop-color="rgb(9.962463%, 94.340515%, 100%)" offset="0.804688"/><stop stop-opacity="1" stop-color="rgb(9.457397%, 94.586182%, 100%)" offset="0.808594"/><stop stop-opacity="1" stop-color="rgb(8.952332%, 94.833374%, 100%)" offset="0.8125"/><stop stop-opacity="1" stop-color="rgb(8.447266%, 95.080566%, 100%)" offset="0.816406"/><stop stop-opacity="1" stop-color="rgb(7.9422%, 95.327759%, 100%)" offset="0.820312"/><stop stop-opacity="1" stop-color="rgb(7.435608%, 95.573425%, 100%)" offset="0.824219"/><stop stop-opacity="1" stop-color="rgb(6.930542%, 95.820618%, 100%)" offset="0.828125"/><stop stop-opacity="1" stop-color="rgb(6.425476%, 96.066284%, 100%)" offset="0.832031"/><stop stop-opacity="1" stop-color="rgb(5.92041%, 96.313477%, 100%)" offset="0.835938"/><stop stop-opacity="1" stop-color="rgb(5.415344%, 96.559143%, 100%)" offset="0.839844"/><stop stop-opacity="1" stop-color="rgb(4.910278%, 96.806335%, 100%)" offset="0.84375"/><stop stop-opacity="1" stop-color="rgb(4.403687%, 97.052002%, 100%)" offset="0.847656"/><stop stop-opacity="1" stop-color="rgb(3.898621%, 97.299194%, 100%)" offset="0.851562"/><stop stop-opacity="1" stop-color="rgb(3.898621%, 97.299194%, 100%)" offset="0.859375"/><stop stop-opacity="1" stop-color="rgb(3.898621%, 97.299194%, 100%)" offset="0.875"/><stop stop-opacity="1" stop-color="rgb(3.898621%, 97.299194%, 100%)" offset="1"/></linearGradient><clipPath id="837fe1814c"><path d="M 73 73.496094 L 131 73.496094 L 131 132 L 73 132 Z M 73 73.496094 " clip-rule="nonzero"/></clipPath><clipPath id="b9a6ae03e3"><path d="M 242 243 L 301 243 L 301 301.496094 L 242 301.496094 Z M 242 243 " clip-rule="nonzero"/></clipPath><clipPath id="b658d27345"><path d="M 76 73.496094 L 302.84375 73.496094 L 302.84375 300 L 76 300 Z M 76 73.496094 " clip-rule="nonzero"/></clipPath></defs><g clip-path="url(#3677a0d06a)"><g clip-path="url(#a803903c13)"><g clip-path="url(#90376981bf)"><g clip-path="url(#98f286fb44)"><path fill="url(#a559522867)" d="M -154.972656 237.417969 L 237.417969 529.96875 L 529.96875 137.574219 L 137.574219 -154.972656 Z M -154.972656 237.417969 " fill-rule="nonzero"/></g></g></g></g><g clip-path="url(#837fe1814c)"><path fill="#0f0246" d="M 78.15625 101.222656 L 100.683594 78.695312 C 101.101562 78.296875 101.535156 77.917969 101.988281 77.558594 C 102.441406 77.203125 102.910156 76.867188 103.398438 76.554688 C 103.882812 76.242188 104.382812 75.957031 104.894531 75.691406 C 105.410156 75.429688 105.933594 75.191406 106.46875 74.976562 C 107.007812 74.765625 107.550781 74.578125 108.105469 74.417969 C 108.660156 74.257812 109.222656 74.125 109.789062 74.023438 C 110.355469 73.917969 110.929688 73.839844 111.503906 73.789062 C 112.078125 73.738281 112.652344 73.714844 113.230469 73.722656 C 113.808594 73.726562 114.382812 73.761719 114.957031 73.824219 C 115.53125 73.886719 116.101562 73.976562 116.664062 74.089844 C 117.230469 74.207031 117.789062 74.351562 118.339844 74.523438 C 118.890625 74.695312 119.433594 74.890625 119.964844 75.117188 C 120.496094 75.339844 121.015625 75.585938 121.523438 75.863281 C 122.03125 76.136719 122.527344 76.433594 123.003906 76.753906 C 123.484375 77.078125 123.945312 77.421875 124.390625 77.789062 C 124.835938 78.15625 125.265625 78.542969 125.671875 78.949219 C 126.082031 79.359375 126.46875 79.785156 126.835938 80.230469 C 127.203125 80.675781 127.546875 81.140625 127.867188 81.617188 C 128.1875 82.097656 128.488281 82.589844 128.761719 83.097656 C 129.035156 83.605469 129.285156 84.125 129.507812 84.660156 C 129.730469 85.191406 129.929688 85.730469 130.097656 86.28125 C 130.269531 86.835938 130.414062 87.390625 130.53125 87.957031 C 130.648438 88.523438 130.738281 89.09375 130.800781 89.667969 C 130.859375 90.238281 130.894531 90.816406 130.902344 91.390625 C 130.90625 91.96875 130.882812 92.546875 130.835938 93.121094 C 130.785156 93.695312 130.707031 94.265625 130.601562 94.832031 C 130.496094 95.402344 130.363281 95.960938 130.203125 96.515625 C 130.042969 97.070312 129.859375 97.617188 129.644531 98.152344 C 129.433594 98.691406 129.195312 99.214844 128.929688 99.726562 C 128.667969 100.242188 128.378906 100.742188 128.066406 101.226562 C 127.753906 101.710938 127.421875 102.179688 127.0625 102.632812 C 126.707031 103.085938 126.328125 103.523438 125.925781 103.9375 L 103.398438 126.46875 C 102.984375 126.867188 102.546875 127.246094 102.09375 127.601562 C 101.640625 127.960938 101.171875 128.292969 100.6875 128.605469 C 100.203125 128.917969 99.703125 129.207031 99.1875 129.46875 C 98.675781 129.734375 98.152344 129.972656 97.613281 130.183594 C 97.078125 130.398438 96.53125 130.582031 95.976562 130.742188 C 95.421875 130.902344 94.863281 131.035156 94.292969 131.140625 C 93.726562 131.246094 93.15625 131.324219 92.582031 131.375 C 92.007812 131.425781 91.429688 131.445312 90.851562 131.441406 C 90.277344 131.433594 89.699219 131.402344 89.125 131.339844 C 88.554688 131.277344 87.984375 131.1875 87.417969 131.070312 C 86.851562 130.953125 86.296875 130.808594 85.742188 130.640625 C 85.191406 130.46875 84.652344 130.269531 84.117188 130.046875 C 83.585938 129.824219 83.066406 129.574219 82.558594 129.300781 C 82.050781 129.027344 81.558594 128.730469 81.078125 128.40625 C 80.601562 128.085938 80.136719 127.742188 79.691406 127.375 C 79.246094 127.007812 78.820312 126.621094 78.410156 126.210938 C 78.003906 125.804688 77.617188 125.378906 77.25 124.929688 C 76.882812 124.484375 76.539062 124.023438 76.214844 123.542969 C 75.894531 123.066406 75.597656 122.570312 75.324219 122.0625 C 75.046875 121.554688 74.800781 121.035156 74.574219 120.503906 C 74.351562 119.972656 74.15625 119.429688 73.984375 118.878906 C 73.8125 118.328125 73.667969 117.769531 73.550781 117.203125 C 73.433594 116.640625 73.347656 116.070312 73.285156 115.496094 C 73.222656 114.921875 73.1875 114.347656 73.183594 113.769531 C 73.175781 113.191406 73.199219 112.617188 73.25 112.042969 C 73.300781 111.46875 73.375 110.894531 73.480469 110.328125 C 73.585938 109.761719 73.71875 109.199219 73.878906 108.644531 C 74.039062 108.089844 74.226562 107.546875 74.4375 107.007812 C 74.652344 106.472656 74.890625 105.949219 75.152344 105.433594 C 75.417969 104.921875 75.703125 104.421875 76.015625 103.9375 C 76.328125 103.449219 76.664062 102.980469 77.019531 102.527344 C 77.378906 102.074219 77.757812 101.640625 78.15625 101.222656 Z M 78.15625 101.222656 " fill-opacity="1" fill-rule="nonzero"/></g><path fill="#0f0246" d="M 79.792969 185.0625 L 185.601562 79.25 C 186.015625 78.851562 186.453125 78.472656 186.90625 78.117188 C 187.359375 77.757812 187.828125 77.421875 188.3125 77.113281 C 188.796875 76.800781 189.296875 76.511719 189.8125 76.25 C 190.324219 75.984375 190.847656 75.746094 191.386719 75.535156 C 191.921875 75.320312 192.46875 75.136719 193.023438 74.976562 C 193.578125 74.816406 194.136719 74.683594 194.703125 74.578125 C 195.273438 74.472656 195.84375 74.394531 196.417969 74.34375 C 196.992188 74.292969 197.570312 74.273438 198.144531 74.277344 C 198.722656 74.285156 199.300781 74.316406 199.871094 74.378906 C 200.445312 74.441406 201.015625 74.53125 201.582031 74.648438 C 202.144531 74.765625 202.703125 74.910156 203.253906 75.078125 C 203.808594 75.25 204.347656 75.449219 204.878906 75.671875 C 205.414062 75.894531 205.933594 76.144531 206.441406 76.417969 C 206.949219 76.691406 207.441406 76.988281 207.921875 77.3125 C 208.398438 77.632812 208.863281 77.976562 209.308594 78.34375 C 209.753906 78.710938 210.179688 79.097656 210.589844 79.507812 C 210.996094 79.914062 211.382812 80.339844 211.75 80.785156 C 212.117188 81.234375 212.460938 81.695312 212.78125 82.175781 C 213.105469 82.652344 213.402344 83.144531 213.675781 83.652344 C 213.949219 84.164062 214.199219 84.683594 214.421875 85.214844 C 214.648438 85.746094 214.84375 86.289062 215.015625 86.839844 C 215.1875 87.390625 215.332031 87.949219 215.445312 88.511719 C 215.5625 89.078125 215.652344 89.648438 215.714844 90.222656 C 215.777344 90.796875 215.808594 91.371094 215.816406 91.949219 C 215.820312 92.523438 215.800781 93.101562 215.75 93.675781 C 215.699219 94.25 215.621094 94.824219 215.515625 95.390625 C 215.410156 95.957031 215.277344 96.519531 215.121094 97.074219 C 214.960938 97.628906 214.773438 98.171875 214.5625 98.710938 C 214.347656 99.246094 214.109375 99.769531 213.847656 100.285156 C 213.582031 100.796875 213.296875 101.296875 212.984375 101.78125 C 212.671875 102.269531 212.335938 102.738281 211.980469 103.191406 C 211.621094 103.644531 211.242188 104.078125 210.84375 104.492188 L 105.035156 210.304688 C 104.625 210.730469 104.191406 211.136719 103.742188 211.519531 C 103.292969 211.90625 102.824219 212.265625 102.335938 212.605469 C 101.851562 212.941406 101.347656 213.253906 100.832031 213.542969 C 100.3125 213.832031 99.78125 214.09375 99.238281 214.328125 C 98.695312 214.5625 98.140625 214.769531 97.578125 214.949219 C 97.011719 215.128906 96.441406 215.28125 95.859375 215.402344 C 95.28125 215.527344 94.699219 215.621094 94.109375 215.683594 C 93.519531 215.75 92.929688 215.785156 92.335938 215.792969 C 91.746094 215.796875 91.152344 215.773438 90.5625 215.722656 C 89.972656 215.667969 89.386719 215.585938 88.804688 215.476562 C 88.222656 215.363281 87.648438 215.222656 87.082031 215.054688 C 86.515625 214.886719 85.957031 214.691406 85.40625 214.46875 C 84.859375 214.242188 84.324219 213.992188 83.800781 213.714844 C 83.277344 213.4375 82.769531 213.136719 82.273438 212.808594 C 81.78125 212.480469 81.304688 212.128906 80.847656 211.753906 C 80.386719 211.378906 79.949219 210.980469 79.53125 210.5625 C 79.113281 210.144531 78.714844 209.707031 78.339844 209.246094 C 77.964844 208.789062 77.613281 208.3125 77.285156 207.820312 C 76.957031 207.328125 76.65625 206.816406 76.378906 206.296875 C 76.101562 205.773438 75.851562 205.234375 75.625 204.6875 C 75.402344 204.140625 75.207031 203.582031 75.039062 203.011719 C 74.871094 202.445312 74.730469 201.871094 74.621094 201.289062 C 74.507812 200.707031 74.425781 200.121094 74.375 199.53125 C 74.320312 198.941406 74.296875 198.351562 74.304688 197.757812 C 74.308594 197.164062 74.34375 196.574219 74.410156 195.984375 C 74.472656 195.398438 74.566406 194.8125 74.691406 194.234375 C 74.8125 193.652344 74.964844 193.082031 75.144531 192.519531 C 75.324219 191.953125 75.53125 191.398438 75.769531 190.855469 C 76.003906 190.3125 76.265625 189.78125 76.550781 189.265625 C 76.839844 188.746094 77.152344 188.246094 77.492188 187.757812 C 77.828125 187.269531 78.1875 186.800781 78.574219 186.351562 C 78.957031 185.902344 79.363281 185.472656 79.792969 185.0625 Z M 79.792969 185.0625 " fill-opacity="1" fill-rule="nonzero"/><g clip-path="url(#b9a6ae03e3)"><path fill="#0f0246" d="M 295.757812 273.769531 L 273.230469 296.296875 C 272.816406 296.710938 272.382812 297.097656 271.929688 297.46875 C 271.476562 297.835938 271.007812 298.183594 270.519531 298.507812 C 270.035156 298.828125 269.53125 299.128906 269.015625 299.402344 C 268.5 299.675781 267.972656 299.925781 267.433594 300.148438 C 266.894531 300.367188 266.34375 300.566406 265.785156 300.734375 C 265.226562 300.902344 264.660156 301.042969 264.085938 301.15625 C 263.515625 301.269531 262.9375 301.355469 262.355469 301.410156 C 261.773438 301.46875 261.191406 301.496094 260.609375 301.496094 C 260.023438 301.496094 259.441406 301.46875 258.859375 301.410156 C 258.28125 301.355469 257.703125 301.269531 257.128906 301.15625 C 256.558594 301.042969 255.992188 300.902344 255.433594 300.734375 C 254.871094 300.566406 254.324219 300.367188 253.785156 300.148438 C 253.242188 299.925781 252.714844 299.675781 252.199219 299.402344 C 251.683594 299.128906 251.183594 298.828125 250.695312 298.507812 C 250.210938 298.183594 249.742188 297.835938 249.289062 297.46875 C 248.835938 297.097656 248.402344 296.710938 247.988281 296.296875 C 247.574219 295.882812 247.183594 295.453125 246.8125 295 C 246.441406 294.546875 246.09375 294.078125 245.769531 293.59375 C 245.445312 293.105469 245.144531 292.605469 244.867188 292.089844 C 244.59375 291.574219 244.34375 291.046875 244.121094 290.507812 C 243.894531 289.96875 243.699219 289.417969 243.53125 288.859375 C 243.359375 288.296875 243.21875 287.730469 243.105469 287.160156 C 242.988281 286.585938 242.902344 286.007812 242.847656 285.425781 C 242.789062 284.84375 242.761719 284.261719 242.761719 283.675781 C 242.761719 283.09375 242.789062 282.507812 242.847656 281.925781 C 242.902344 281.34375 242.988281 280.769531 243.105469 280.195312 C 243.21875 279.621094 243.359375 279.054688 243.53125 278.496094 C 243.699219 277.9375 243.894531 277.386719 244.121094 276.847656 C 244.34375 276.304688 244.59375 275.777344 244.867188 275.261719 C 245.144531 274.746094 245.445312 274.246094 245.769531 273.761719 C 246.09375 273.273438 246.441406 272.804688 246.8125 272.351562 C 247.183594 271.902344 247.574219 271.46875 247.988281 271.054688 L 270.515625 248.527344 C 270.933594 248.128906 271.367188 247.75 271.820312 247.390625 C 272.273438 247.035156 272.742188 246.699219 273.226562 246.386719 C 273.714844 246.074219 274.210938 245.785156 274.726562 245.523438 C 275.238281 245.257812 275.765625 245.023438 276.300781 244.808594 C 276.835938 244.597656 277.382812 244.410156 277.9375 244.25 C 278.492188 244.089844 279.054688 243.957031 279.621094 243.851562 C 280.1875 243.746094 280.757812 243.667969 281.332031 243.621094 C 281.910156 243.570312 282.484375 243.546875 283.0625 243.554688 C 283.640625 243.558594 284.214844 243.59375 284.789062 243.65625 C 285.363281 243.714844 285.929688 243.804688 286.496094 243.921875 C 287.0625 244.039062 287.621094 244.183594 288.171875 244.355469 C 288.722656 244.527344 289.265625 244.722656 289.796875 244.945312 C 290.328125 245.171875 290.847656 245.417969 291.355469 245.691406 C 291.863281 245.96875 292.355469 246.265625 292.835938 246.585938 C 293.316406 246.910156 293.777344 247.253906 294.222656 247.621094 C 294.667969 247.984375 295.09375 248.375 295.503906 248.78125 C 295.910156 249.191406 296.300781 249.617188 296.664062 250.0625 C 297.03125 250.507812 297.375 250.96875 297.699219 251.449219 C 298.019531 251.929688 298.316406 252.421875 298.59375 252.929688 C 298.867188 253.4375 299.113281 253.957031 299.339844 254.488281 C 299.5625 255.019531 299.757812 255.5625 299.929688 256.113281 C 300.101562 256.664062 300.246094 257.222656 300.363281 257.789062 C 300.480469 258.355469 300.570312 258.921875 300.628906 259.496094 C 300.691406 260.070312 300.726562 260.644531 300.730469 261.222656 C 300.738281 261.800781 300.714844 262.375 300.664062 262.953125 C 300.617188 263.527344 300.539062 264.097656 300.433594 264.664062 C 300.328125 265.230469 300.195312 265.792969 300.035156 266.347656 C 299.875 266.902344 299.6875 267.449219 299.476562 267.984375 C 299.261719 268.519531 299.027344 269.046875 298.761719 269.558594 C 298.5 270.074219 298.210938 270.570312 297.898438 271.058594 C 297.585938 271.542969 297.25 272.011719 296.894531 272.464844 C 296.535156 272.917969 296.15625 273.351562 295.757812 273.769531 Z M 295.757812 273.769531 " fill-opacity="1" fill-rule="nonzero"/></g><path fill="#0f0246" d="M 296.28125 189.933594 L 190.472656 295.839844 C 190.054688 296.238281 189.621094 296.617188 189.167969 296.976562 C 188.714844 297.332031 188.246094 297.667969 187.761719 297.980469 C 187.273438 298.292969 186.777344 298.578125 186.261719 298.84375 C 185.75 299.105469 185.222656 299.34375 184.6875 299.558594 C 184.152344 299.769531 183.605469 299.957031 183.050781 300.117188 C 182.496094 300.277344 181.933594 300.410156 181.367188 300.515625 C 180.800781 300.621094 180.230469 300.699219 179.65625 300.746094 C 179.078125 300.796875 178.503906 300.820312 177.925781 300.8125 C 177.347656 300.808594 176.773438 300.773438 176.199219 300.710938 C 175.625 300.652344 175.058594 300.5625 174.492188 300.445312 C 173.925781 300.328125 173.367188 300.183594 172.816406 300.011719 C 172.265625 299.839844 171.722656 299.644531 171.191406 299.421875 C 170.660156 299.195312 170.140625 298.949219 169.632812 298.675781 C 169.125 298.398438 168.632812 298.101562 168.152344 297.78125 C 167.671875 297.457031 167.210938 297.113281 166.765625 296.746094 C 166.320312 296.382812 165.890625 295.992188 165.484375 295.585938 C 165.078125 295.175781 164.6875 294.75 164.324219 294.304688 C 163.957031 293.859375 163.613281 293.398438 163.289062 292.917969 C 162.96875 292.4375 162.667969 291.945312 162.394531 291.4375 C 162.121094 290.929688 161.875 290.410156 161.648438 289.878906 C 161.425781 289.34375 161.230469 288.804688 161.058594 288.253906 C 160.886719 287.703125 160.742188 287.144531 160.625 286.578125 C 160.507812 286.011719 160.417969 285.445312 160.359375 284.871094 C 160.296875 284.296875 160.261719 283.71875 160.257812 283.144531 C 160.25 282.566406 160.273438 281.992188 160.324219 281.414062 C 160.371094 280.839844 160.449219 280.269531 160.554688 279.703125 C 160.660156 279.132812 160.792969 278.574219 160.953125 278.019531 C 161.113281 277.464844 161.300781 276.917969 161.511719 276.382812 C 161.726562 275.847656 161.960938 275.320312 162.226562 274.808594 C 162.488281 274.292969 162.777344 273.792969 163.089844 273.308594 C 163.402344 272.824219 163.738281 272.355469 164.09375 271.902344 C 164.453125 271.449219 164.832031 271.015625 165.230469 270.597656 L 271.039062 164.691406 C 271.457031 164.289062 271.890625 163.910156 272.34375 163.554688 C 272.796875 163.195312 273.265625 162.863281 273.75 162.550781 C 274.238281 162.238281 274.734375 161.949219 275.25 161.6875 C 275.761719 161.421875 276.289062 161.183594 276.824219 160.972656 C 277.359375 160.757812 277.90625 160.574219 278.460938 160.414062 C 279.015625 160.253906 279.574219 160.121094 280.144531 160.015625 C 280.710938 159.910156 281.28125 159.832031 281.855469 159.78125 C 282.433594 159.734375 283.007812 159.710938 283.585938 159.71875 C 284.164062 159.722656 284.738281 159.757812 285.3125 159.816406 C 285.886719 159.878906 286.453125 159.96875 287.019531 160.085938 C 287.585938 160.203125 288.144531 160.347656 288.695312 160.519531 C 289.246094 160.6875 289.785156 160.886719 290.320312 161.109375 C 290.851562 161.332031 291.371094 161.582031 291.878906 161.855469 C 292.386719 162.128906 292.878906 162.429688 293.359375 162.75 C 293.839844 163.070312 294.300781 163.417969 294.746094 163.78125 C 295.191406 164.148438 295.617188 164.535156 296.027344 164.945312 C 296.433594 165.351562 296.824219 165.78125 297.1875 166.226562 C 297.554688 166.671875 297.898438 167.132812 298.222656 167.613281 C 298.542969 168.089844 298.839844 168.585938 299.117188 169.09375 C 299.390625 169.601562 299.636719 170.121094 299.863281 170.652344 C 300.085938 171.183594 300.28125 171.726562 300.453125 172.277344 C 300.625 172.828125 300.769531 173.386719 300.886719 173.953125 C 301.003906 174.515625 301.09375 175.085938 301.152344 175.660156 C 301.214844 176.234375 301.25 176.808594 301.253906 177.386719 C 301.261719 177.964844 301.238281 178.539062 301.1875 179.113281 C 301.140625 179.691406 301.0625 180.261719 300.957031 180.828125 C 300.851562 181.394531 300.71875 181.957031 300.558594 182.511719 C 300.398438 183.066406 300.210938 183.613281 300 184.148438 C 299.785156 184.683594 299.546875 185.210938 299.285156 185.722656 C 299.023438 186.234375 298.734375 186.734375 298.421875 187.222656 C 298.109375 187.707031 297.773438 188.175781 297.417969 188.628906 C 297.058594 189.082031 296.679688 189.515625 296.28125 189.933594 Z M 296.28125 189.933594 " fill-opacity="1" fill-rule="nonzero"/><g clip-path="url(#b658d27345)"><path fill="#0f0246" d="M 301.839844 94.519531 L 301.839844 122.542969 C 301.839844 123.46875 301.765625 124.390625 301.617188 125.304688 C 301.464844 126.21875 301.238281 127.113281 300.941406 127.992188 C 300.640625 128.867188 300.273438 129.714844 299.835938 130.53125 C 299.398438 131.347656 298.894531 132.121094 298.328125 132.855469 C 297.761719 133.585938 297.140625 134.269531 296.460938 134.898438 C 295.78125 135.53125 295.054688 136.101562 294.28125 136.609375 C 293.511719 137.121094 292.699219 137.566406 291.855469 137.941406 C 291.007812 138.320312 290.136719 138.625 289.238281 138.859375 C 288.34375 139.089844 287.433594 139.25 286.511719 139.332031 C 285.589844 139.414062 284.664062 139.421875 283.742188 139.351562 C 282.816406 139.285156 281.90625 139.140625 281.003906 138.917969 C 280.105469 138.699219 279.230469 138.40625 278.378906 138.042969 C 277.527344 137.679688 276.710938 137.246094 275.929688 136.746094 C 275.148438 136.25 274.414062 135.6875 273.726562 135.070312 C 273.039062 134.449219 272.40625 133.777344 271.828125 133.050781 C 271.25 132.328125 270.738281 131.558594 270.285156 130.75 L 106.472656 294.304688 C 106.054688 294.703125 105.621094 295.082031 105.167969 295.4375 C 104.714844 295.796875 104.246094 296.132812 103.761719 296.441406 C 103.273438 296.753906 102.777344 297.042969 102.261719 297.308594 C 101.75 297.570312 101.222656 297.808594 100.6875 298.019531 C 100.152344 298.234375 99.605469 298.421875 99.050781 298.578125 C 98.496094 298.738281 97.933594 298.871094 97.367188 298.976562 C 96.800781 299.082031 96.230469 299.160156 95.65625 299.210938 C 95.078125 299.261719 94.503906 299.28125 93.925781 299.277344 C 93.347656 299.269531 92.773438 299.238281 92.199219 299.175781 C 91.625 299.113281 91.058594 299.023438 90.492188 298.90625 C 89.925781 298.789062 89.367188 298.644531 88.816406 298.476562 C 88.265625 298.304688 87.726562 298.105469 87.191406 297.882812 C 86.660156 297.660156 86.140625 297.410156 85.632812 297.136719 C 85.125 296.863281 84.632812 296.566406 84.152344 296.242188 C 83.671875 295.921875 83.210938 295.578125 82.765625 295.210938 C 82.320312 294.84375 81.894531 294.457031 81.484375 294.046875 C 81.078125 293.640625 80.6875 293.214844 80.324219 292.769531 C 79.957031 292.324219 79.613281 291.859375 79.289062 291.382812 C 78.96875 290.902344 78.671875 290.410156 78.394531 289.902344 C 78.121094 289.394531 77.875 288.871094 77.648438 288.339844 C 77.425781 287.808594 77.230469 287.265625 77.058594 286.714844 C 76.886719 286.164062 76.742188 285.605469 76.625 285.042969 C 76.507812 284.476562 76.417969 283.90625 76.359375 283.332031 C 76.296875 282.757812 76.261719 282.183594 76.257812 281.605469 C 76.25 281.03125 76.273438 280.453125 76.324219 279.878906 C 76.371094 279.304688 76.449219 278.734375 76.554688 278.164062 C 76.660156 277.597656 76.792969 277.035156 76.953125 276.480469 C 77.113281 275.925781 77.300781 275.382812 77.511719 274.84375 C 77.726562 274.308594 77.964844 273.785156 78.226562 273.269531 C 78.488281 272.757812 78.777344 272.257812 79.089844 271.773438 C 79.402344 271.285156 79.738281 270.816406 80.09375 270.363281 C 80.453125 269.910156 80.832031 269.476562 81.230469 269.0625 L 244.195312 106.195312 C 243.296875 105.824219 242.441406 105.378906 241.621094 104.863281 C 240.800781 104.34375 240.03125 103.757812 239.316406 103.109375 C 238.597656 102.457031 237.9375 101.75 237.34375 100.984375 C 236.746094 100.21875 236.21875 99.410156 235.765625 98.554688 C 235.308594 97.699219 234.929688 96.8125 234.625 95.890625 C 234.324219 94.96875 234.101562 94.03125 233.960938 93.070312 C 233.820312 92.109375 233.761719 91.148438 233.789062 90.179688 C 233.816406 89.207031 233.921875 88.25 234.117188 87.296875 C 234.308594 86.347656 234.578125 85.421875 234.929688 84.519531 C 235.28125 83.613281 235.710938 82.75 236.210938 81.917969 C 236.710938 81.089844 237.28125 80.308594 237.917969 79.578125 C 238.554688 78.84375 239.25 78.175781 240 77.5625 C 240.753906 76.949219 241.550781 76.410156 242.398438 75.933594 C 243.246094 75.460938 244.125 75.0625 245.039062 74.742188 C 245.953125 74.421875 246.890625 74.179688 247.84375 74.019531 C 248.800781 73.859375 249.765625 73.785156 250.734375 73.792969 L 281.796875 73.792969 C 282.492188 73.6875 283.1875 73.628906 283.890625 73.609375 C 284.59375 73.589844 285.292969 73.613281 285.992188 73.679688 C 286.691406 73.742188 287.382812 73.847656 288.070312 73.992188 C 288.757812 74.140625 289.433594 74.324219 290.097656 74.550781 C 290.761719 74.777344 291.410156 75.042969 292.042969 75.347656 C 292.675781 75.648438 293.289062 75.988281 293.878906 76.367188 C 294.472656 76.742188 295.042969 77.152344 295.585938 77.59375 C 296.128906 78.039062 296.644531 78.511719 297.132812 79.015625 C 297.621094 79.523438 298.078125 80.054688 298.503906 80.613281 C 298.925781 81.171875 299.316406 81.753906 299.671875 82.359375 C 300.03125 82.960938 300.347656 83.585938 300.628906 84.230469 C 300.910156 84.871094 301.15625 85.53125 301.359375 86.199219 C 301.5625 86.871094 301.726562 87.554688 301.847656 88.246094 C 301.972656 88.9375 302.054688 89.632812 302.09375 90.332031 C 302.136719 91.03125 302.132812 91.734375 302.089844 92.433594 C 302.050781 93.136719 301.964844 93.832031 301.839844 94.519531 Z M 301.839844 94.519531 " fill-opacity="1" fill-rule="nonzero"/></g></svg>